<svg width="33" height="20" viewBox="0 0 33 20" fill="none" xmlns="http://www.w3.org/2000/svg">
<path fill-rule="evenodd" clip-rule="evenodd" d="M20.4148 0.31897H26.7967L24.0114 14.2996H32.5566L31.5561 19.2483H16.6289L18.0097 12.3443L20.499 14.05L20.0711 9.98347L23.5866 7.29489L19.4029 7.01121L19.2219 6.28317L20.4148 0.31897Z" fill="#FFEA00"/>
<path fill-rule="evenodd" clip-rule="evenodd" d="M3.15671 18.9509C4.3105 19.4377 5.68063 19.6811 7.26709 19.6811C8.87158 19.6811 10.2597 19.4377 11.4315 18.9509C12.6214 18.4642 13.5949 17.6799 14.3521 16.5983C15.0691 15.5569 15.6083 14.1922 15.9696 12.5041L13.0946 14.05L15.0103 9.9835L12.09 7.29492L16.2737 7.01125L17.5191 4.7652L18.4084 0.319031H5.67161L4.6981 5.13249H11.1341L9.64678 12.5961C9.52058 13.2631 9.25918 13.7769 8.86256 14.1375C8.48398 14.498 7.98821 14.6783 7.37526 14.6783C6.81639 14.6783 6.29358 14.5341 5.80682 14.2456C5.3381 13.9391 4.89641 13.4885 4.48177 12.8935L0.398438 16.7605C1.10153 17.734 2.02095 18.4642 3.15671 18.9509Z" fill="#FFEA00"/>
</svg>
